<svg width="700" height="110" viewBox="0 0 700 110" fill="none" xmlns="http://www.w3.org/2000/svg">
<path d="M486.42 96.9273C471.263 96.3702 456.419 96.1364 442.665 96.3901C427.464 96.6686 410.78 97.3302 393.722 98.2157C412.302 101.797 428.692 105.553 438.089 107.796C448.122 105.304 465.921 101.061 486.42 96.9273Z" fill="#77DB73"/>
<path d="M565.737 85.6703C541.591 86.8393 511.914 91.7938 486.42 96.9323C559.897 99.6384 640.79 110 640.79 110H699.304C699.304 110 619.947 83.0389 565.737 85.6703Z" fill="#77DB73"/>
<path d="M438.089 107.796C443.372 109.06 446.446 109.841 446.446 109.841L429.981 109.851C429.613 109.945 429.419 110 429.419 110H640.79C640.79 110 559.902 99.6383 486.42 96.9323C465.921 101.061 448.122 105.304 438.089 107.796Z" fill="#38BC34"/>
<path d="M238.721 81.7356C216.271 76.5075 193.678 72.906 170.865 71.6177C156.827 70.8268 142.785 71.0456 128.752 72.2992C112.073 73.7865 95.528 76.4578 79.0429 79.905C52.8279 85.3868 -0.547173 107.344 0.00498347 109.945C69.7259 109.945 139.447 109.945 209.163 109.945C211.128 109.125 239.74 97.3402 278.909 91.759C265.547 88.2321 252.156 84.8645 238.721 81.7356Z" fill="#FFDB33"/>
<path d="M393.722 98.2157C368.637 93.3806 339.571 88.8788 318.365 88.8788C304.507 88.8788 291.19 90.0179 278.909 91.7689C292.548 95.3753 306.153 99.1658 319.733 103.096C342.889 101.3 368.711 99.514 393.722 98.2157Z" fill="#FFDB33"/>
<path d="M326.469 105.046C331.438 106.498 337.293 108.423 342.267 109.91L429.981 109.851C431.115 109.552 433.935 108.826 438.084 107.796C428.687 105.553 412.297 101.792 393.717 98.2157C368.706 99.514 342.884 101.305 319.728 103.096C321.982 103.742 324.225 104.389 326.469 105.046Z" fill="#77BC17"/>
<path d="M446.451 109.841C446.451 109.841 443.377 109.06 438.094 107.796C433.945 108.826 431.125 109.557 429.991 109.851L446.451 109.841Z" fill="#38A20A"/>
<path d="M319.733 103.096C306.153 99.1658 292.543 95.3753 278.909 91.7689C239.74 97.3502 211.128 109.13 209.163 109.955C219.763 109.955 230.359 109.955 240.959 109.955C245.297 109.522 278.227 106.304 319.733 103.096Z" fill="#FFBC0A"/>
<path d="M319.733 103.096C278.227 106.304 245.297 109.522 240.954 109.95C254.599 109.95 268.239 109.95 281.883 109.95L342.267 109.91C337.288 108.423 331.438 106.503 326.469 105.046C324.225 104.389 321.982 103.742 319.733 103.096Z" fill="#E4B605"/>
</svg>
