<svg width="518" height="121" viewBox="0 0 518 121" fill="none" xmlns="http://www.w3.org/2000/svg">
<g clip-path="url(#clip0_27_258)" filter="url(#filter0_d_27_258)">
<path d="M137.994 18.9829C122.742 18.9829 111.243 29.2399 111.243 42.8647C111.243 56.4896 122.902 66.8231 137.834 66.8231C146.778 66.8231 153.805 63.1489 158.357 57.944V56.8722L149.493 49.6772H148.455C145.74 52.5092 141.987 54.1167 137.994 54.1167C131.526 54.4229 126.016 49.6006 125.696 43.3239C125.377 37.1238 130.408 31.8423 136.956 31.5362H137.994C141.987 31.6127 145.74 33.2201 148.455 35.9757H149.493L158.357 28.704V27.7089C153.246 22.1977 145.82 18.9064 137.994 18.9829Z" fill="white"/>
<path d="M165.783 65.9046H202.675V54.3463H180.476V47.8402H197.165V37.0475H180.476V30.5411H202.675V18.9829H165.783V65.9046Z" fill="white"/>
<path d="M366.774 49.6772L360.945 37.2005L352.401 18.9829H338.906L318.383 65.9046H333.795L336.51 58.8626H354.796C355.994 61.0823 357.591 62.9959 359.508 64.6798C361.664 66.2108 364.379 66.9761 367.094 66.8231C369.569 66.8997 371.965 66.3638 374.121 65.2923L367.573 51.2847C367.333 50.8254 367.094 50.2895 366.774 49.6772ZM340.343 49.524L345.773 35.5931L350.884 49.524H340.343Z" fill="white"/>
<path d="M256.496 49.6772L250.667 37.2005L242.203 18.9829H228.707L208.185 65.9046H223.597L226.312 58.8626H244.598C245.796 61.0823 247.393 62.9959 249.31 64.6798C251.466 66.2108 254.181 66.9761 256.896 66.8231C259.371 66.8997 261.767 66.3638 263.923 65.2923L257.295 51.2847C256.975 50.8254 256.736 50.2895 256.496 49.6772ZM229.985 49.524L235.415 35.5165L240.526 49.4476L229.985 49.524Z" fill="white"/>
<path d="M303.051 47.534C308.401 45.2376 311.915 40.798 311.915 34.6745C311.915 25.1066 305.128 18.9829 292.431 18.9829H269.593V65.9046H284.286V49.4476H285.484C288.758 49.4476 291.792 55.8773 293.549 58.939C296.823 64.5268 300.017 66.8231 306.645 66.8231C309.599 66.8231 312.634 65.9046 314.151 64.7564L314.231 64.6034L303.371 47.8402C303.211 47.7636 303.131 47.6106 303.051 47.534ZM291.872 40.1091H284.286V30.5411H291.872C294.587 30.3881 296.823 32.3782 296.983 34.9808V35.44C296.983 38.5017 294.587 40.0327 291.872 40.1091Z" fill="white"/>
<path d="M126.974 82.5911C126.974 84.5047 126.176 86.4184 124.738 87.7196C123.221 89.0974 121.225 89.8629 119.149 89.8629C114.836 89.8629 111.323 86.4948 111.323 82.3614C111.323 78.2281 114.836 74.8602 119.149 74.8602C121.544 74.8602 123.86 75.8553 125.377 77.6158V77.8454L123.141 79.6058H122.822C121.943 78.5343 120.586 77.922 119.149 77.922C116.753 77.922 114.757 79.8355 114.836 82.1318V82.285C114.757 84.6578 116.753 86.5714 119.228 86.5714C120.267 86.5714 121.305 86.2652 122.183 85.5763C122.742 85.0406 123.141 84.4281 123.301 83.6628H119.308V81.1369H126.655L126.974 81.3665V82.5911Z" fill="white"/>
<path d="M129.37 82.438C129.37 78.1516 132.963 74.9368 137.595 74.9368C142.226 74.9368 145.82 78.1516 145.82 82.438C145.82 86.7245 142.226 89.9393 137.595 89.9393C132.963 89.9393 129.37 86.7245 129.37 82.438ZM142.146 82.438C142.146 79.9887 140.15 78.075 137.595 78.075C135.039 78.075 133.043 79.9887 133.043 82.438C133.043 84.8874 135.039 86.8011 137.595 86.8011C140.07 86.8777 142.067 85.0406 142.146 82.6677V82.438Z" fill="white"/>
<path d="M162.748 75.4725L155.961 89.6333H153.885L147.097 75.4725L147.257 75.2429H150.93L154.923 84.4282L159.075 75.2429H162.589L162.748 75.4725Z" fill="white"/>
<path d="M169.137 78.0751V81.0603H174.806V83.7393H169.137V86.8011H176.483V89.6333H165.464V75.2429H176.483V78.0751H169.137Z" fill="white"/>
<path d="M192.614 89.3271L192.454 89.5567H188.86L185.826 84.1221H183.75V89.5567H180.157V75.2429H186.625C190.458 75.2429 192.454 77.0035 192.454 79.8355C192.454 81.6726 191.256 83.28 189.499 83.8159L192.614 89.3271ZM183.75 81.8258H186.704C187.743 81.9022 188.701 81.2133 188.781 80.2184V79.9887C188.781 78.917 187.982 78.0751 186.864 78.0751H183.75V81.8258Z" fill="white"/>
<path d="M209.543 75.2429V89.7097H207.307L199.641 81.0603V89.6333H196.047V75.2429H198.283L205.869 83.8159V75.2429H209.543Z" fill="white"/>
<path d="M212.977 82.438C212.977 78.1516 216.57 74.9368 221.202 74.9368C225.833 74.9368 229.427 78.1516 229.427 82.438C229.427 86.7245 225.833 89.9393 221.202 89.9393C216.57 89.9393 212.977 86.648 212.977 82.438ZM225.753 82.438C225.753 80.0651 223.757 78.075 221.202 78.075C218.726 78.075 216.65 79.9887 216.65 82.438C216.65 84.8874 218.646 86.8011 221.202 86.8011C223.677 86.8777 225.674 85.0406 225.753 82.6677V82.438Z" fill="white"/>
<path d="M253.302 82.3615C253.302 86.7245 250.267 89.5567 245.396 89.5567H238.848V75.2429H245.396C250.267 75.2429 253.302 78.0751 253.302 82.3615ZM249.628 82.3615C249.628 79.6059 247.872 77.9985 245.236 77.9985H242.362V86.7245H245.236C247.872 86.7245 249.628 85.1171 249.628 82.3615Z" fill="white"/>
<path d="M255.858 82.438C255.858 78.1516 259.452 74.9368 264.083 74.9368C268.714 74.9368 272.308 78.1516 272.308 82.438C272.308 86.7245 268.714 89.9393 264.083 89.9393C259.452 89.9393 255.858 86.7245 255.858 82.438ZM268.635 82.438C268.635 80.0651 266.638 78.075 264.163 78.075C261.687 78.075 259.611 79.9887 259.611 82.3614C259.611 84.7344 261.608 86.7245 264.083 86.7245H264.163C266.638 86.8011 268.635 84.964 268.714 82.5911C268.635 82.5146 268.635 82.438 268.635 82.438Z" fill="white"/>
<path d="M285.324 78.0751V81.0603H290.994V83.7393H285.324V86.8011H292.75V89.6333H281.731V75.2429H292.67V78.0751H285.324Z" fill="white"/>
<path d="M295.225 87.2604V87.0307L296.981 85.0407H297.221C298.259 86.1888 299.776 86.8777 301.373 86.9541C302.89 86.9541 303.769 86.3419 303.769 85.4999C303.769 84.2752 302.332 84.1221 300.495 83.5863C298.419 82.974 295.943 81.8258 295.943 79.1466C295.943 76.6207 298.259 74.8602 301.613 74.8602C303.689 74.7836 305.765 75.5491 307.282 77.0035V77.2332L305.526 79.1466H305.286C304.328 78.2281 303.05 77.6158 301.693 77.5392C300.495 77.5392 299.696 77.9985 299.696 78.8406C299.696 79.7591 300.814 80.1418 302.092 80.601C304.647 81.3665 307.602 82.1319 307.602 85.3467C307.602 88.1789 304.967 89.7097 301.693 89.7097C299.217 89.9394 296.901 89.0208 295.225 87.2604Z" fill="white"/>
<path d="M317.665 89.6333H314.071V78.0751H309.36V75.2429H322.456V78.0751H317.665V89.6333Z" fill="white"/>
<path d="M337.947 89.3271L337.787 89.6333H334.114L332.996 87.1073H326.607L325.49 89.6333H321.976L321.816 89.3271L328.764 75.1664H330.999L337.947 89.3271ZM332.038 84.6578L329.961 79.7591L327.805 84.6578H332.038Z" fill="white"/>
<path d="M355.115 82.3615C355.115 86.7245 352.08 89.5567 347.209 89.5567H340.661V75.2429H347.209C352.08 75.2429 355.115 78.0751 355.115 82.3615ZM351.441 82.3615C351.441 79.6059 349.685 77.9985 347.129 77.9985H344.255V86.7245H347.129C349.764 86.7245 351.521 85.1171 351.441 82.3615Z" fill="white"/>
<path d="M357.75 82.438C357.75 78.1516 361.343 74.9368 365.975 74.9368C370.606 74.9368 374.2 78.1516 374.2 82.438C374.2 86.7245 370.606 89.9393 365.975 89.9393C361.343 89.9393 357.75 86.7245 357.75 82.438ZM370.526 82.438C370.526 79.9887 368.53 78.075 365.975 78.075C363.419 78.075 361.423 79.9887 361.423 82.438C361.423 84.8874 363.419 86.8011 365.975 86.8011C368.45 86.8777 370.446 85.0406 370.526 82.6677V82.438Z" fill="white"/>
<path d="M340.022 16.1509L359.347 9.18535V8.19022L354.236 0.153076H353.198L336.11 10.1805V11.1754L338.984 16.1509H340.022Z" fill="white"/>
<path d="M83.3743 46.4624C83.9331 42.0228 87.2072 38.961 91.0402 36.5882L91.7589 36.2054L78.9024 20.667L78.6628 20.5904C77.1457 20.2843 75.6284 20.0547 74.1112 19.8251C69.4798 19.2126 66.126 18.8299 63.2512 18.5237L60.8556 18.3707H60.7757L60.057 18.2941H59.7376C57.9809 18.2176 56.2241 18.141 54.4673 18.0644H53.3494C46.8812 17.9114 41.2117 18.141 37.1392 18.3707C35.7018 18.4473 26.6783 19.2892 24.9216 19.5188H24.6821C22.6058 19.8251 18.3736 20.4374 16.8563 20.667L4 36.2054L4.71868 36.5882C8.55164 38.8846 11.8256 42.0228 12.3846 46.4624C12.9436 50.9019 10.3882 55.9538 8.63156 59.9342C6.31568 65.2923 4.15964 70.5739 4.15964 76.4677C4.15964 77.6925 4.3992 78.9937 4.71868 80.2184C5.9964 84.1222 9.11068 87.2604 12.4645 89.7864C16.4571 92.6186 20.6893 95.1446 25.1612 97.2877C29.7128 99.584 34.3442 101.804 38.7362 104.33C41.6908 106.014 45.5238 108.54 47.1208 111.525L47.7596 112.75L48.3985 111.525C49.9955 108.54 53.9084 106.09 56.7831 104.33C61.1749 101.804 65.8065 99.584 70.3581 97.2877C74.8298 95.1446 79.0622 92.6186 83.0548 89.7864C86.4086 87.2604 89.5229 84.1222 90.8006 80.2184C91.1999 78.9937 91.3595 77.7689 91.3595 76.4677C91.3595 70.5739 89.2035 65.2923 86.8878 59.9342C85.2908 55.9538 82.8152 50.9019 83.3743 46.4624Z" fill="white"/>
<path fill-rule="evenodd" clip-rule="evenodd" d="M63.4109 2.9852L66.046 3.36786V1.83704L63.4109 2.9852Z" fill="#EAD7B1"/>
<path fill-rule="evenodd" clip-rule="evenodd" d="M40.4131 0.995117V2.44933L41.9304 2.29631L40.4131 0.995117Z" fill="#EAD7B1"/>
<path fill-rule="evenodd" clip-rule="evenodd" d="M53.7486 2.29637L55.186 2.37298V0.918579L53.7486 2.29637Z" fill="#EAD7B1"/>
<mask id="mask0_27_258" style="mask-type:luminance" maskUnits="userSpaceOnUse" x="23" y="0" width="50" height="8">
<path d="M44.9648 0.229614C44.8051 0.229614 44.6453 0.382641 44.6453 0.535852V2.52594C43.0483 2.52594 41.4513 2.60255 39.8541 2.67897V0.688879C39.8541 0.612274 39.8541 0.535852 39.7744 0.459247C39.6945 0.382641 39.6146 0.382641 39.5348 0.382641C37.778 0.459247 35.9414 0.612274 34.1047 0.765485C33.945 0.765485 33.8651 0.918512 33.8651 1.07154V3.06181C32.2681 3.21484 30.8308 3.36786 29.2337 3.5975V1.68402C29.2337 1.60741 29.2337 1.5308 29.1538 1.45438C29.0739 1.37778 28.9942 1.37778 28.9143 1.37778C27.7165 1.5308 26.5187 1.83704 25.3209 2.06667C24.6022 2.2197 23.9634 2.37291 23.2447 2.44933C23.0849 2.44933 23.0052 2.60255 23.0052 2.75557V4.97529L23.8835 6.58272C23.9634 6.65933 24.0432 6.73593 24.1231 6.73593H24.2827C31.789 5.58777 39.375 4.97529 46.9612 4.89887C54.6271 4.89887 62.1332 5.7408 71.0768 7.11859H71.1567C71.2365 7.11859 71.3164 7.11859 71.3164 7.04199C71.3963 6.96556 71.3963 6.88896 71.3963 6.81235V6.58272L72.115 5.28153L72.2746 4.97529V2.75557C72.2746 2.60255 72.1947 2.52594 72.0351 2.44933L71.2365 2.29631C69.7194 1.99007 68.1222 1.68402 66.6051 1.45438C66.5252 1.45438 66.4453 1.45438 66.3656 1.5308C66.2856 1.5308 66.2856 1.60741 66.2057 1.68402V3.52108C64.9282 3.36786 63.7304 3.21484 62.5326 3.13823L61.5743 3.06181V1.14814C61.5743 0.995117 61.4944 0.918512 61.3348 0.841907C59.578 0.688879 57.7414 0.535852 55.9046 0.459247C55.8249 0.459247 55.745 0.459247 55.6651 0.535852C55.5854 0.612274 55.5854 0.688879 55.5854 0.765485V2.67897C53.9882 2.60255 52.3912 2.60255 50.7941 2.52594V0.535852C50.7941 0.382641 50.6343 0.229614 50.4747 0.229614H44.9648Z" fill="white"/>
</mask>
<g mask="url(#mask0_27_258)">
<path d="M72.4345 0.229614H23.0052V7.11859H72.4345V0.229614Z" fill="url(#paint0_linear_27_258)"/>
</g>
<mask id="mask1_27_258" style="mask-type:luminance" maskUnits="userSpaceOnUse" x="23" y="5" width="49" height="5">
<path d="M23.9634 7.04197L26.1194 9.03224C33.2263 7.9605 40.3332 7.34821 47.52 7.2716C54.8666 7.42481 62.293 7.9605 69.5595 9.03224L70.9969 7.73087L71.3963 7.04197C63.89 5.66417 56.2241 5.05188 48.5581 5.05188C40.2535 5.12849 32.1084 5.81738 23.9634 7.04197Z" fill="white"/>
</mask>
<g mask="url(#mask1_27_258)">
<path d="M71.3963 5.12854H23.9634V9.1089H71.3963V5.12854Z" fill="url(#paint1_linear_27_258)"/>
</g>
<mask id="mask2_27_258" style="mask-type:luminance" maskUnits="userSpaceOnUse" x="22" y="7" width="51" height="14">
<path d="M27.8761 8.95568L22.9252 20.2077C22.9252 20.2077 35.2227 18.8299 48.4782 18.5236C56.7032 18.3706 64.7683 18.9829 72.8336 20.2843C72.7537 20.2077 67.643 8.87907 67.643 8.87907C67.643 8.87907 58.8592 7.80751 48.3985 7.57788H46.1626C40.0936 7.65449 34.0249 8.11375 27.8761 8.95568Z" fill="white"/>
</mask>
<g mask="url(#mask2_27_258)">
<path d="M72.8337 7.57788H23.0052V20.3607H72.8337V7.57788Z" fill="url(#paint2_linear_27_258)"/>
</g>
<path fill-rule="evenodd" clip-rule="evenodd" d="M51.1933 18.3706L43.767 18.4472C43.8469 17.0694 43.9266 15.7681 44.2461 14.4669C44.5656 13.4717 45.2043 12.5532 46.0826 11.9409C46.8812 11.405 47.8395 11.3286 48.7977 11.5582C49.6761 11.8643 50.4746 12.4768 50.8739 13.2421C51.4329 14.1606 51.7524 15.1558 51.8321 16.1509C51.912 16.9162 51.912 17.6817 51.8321 18.4472L51.1933 18.3706Z" fill="#EAD7B1"/>
<path fill-rule="evenodd" clip-rule="evenodd" d="M58.8592 9.56801C57.6614 9.64461 56.6233 10.3335 56.7032 11.252C56.7831 12.1706 57.3419 16.457 57.3419 16.457L62.1331 16.7632L61.2548 10.8694C61.2548 10.8694 60.057 9.49159 58.8592 9.56801Z" fill="#EAD7B1"/>
<mask id="mask3_27_258" style="mask-type:luminance" maskUnits="userSpaceOnUse" x="8" y="22" width="80" height="84">
<path d="M18.9327 24.341L9.82937 35.2103C13.2629 37.9659 15.8184 41.4104 16.3772 45.9265C17.0162 51.2846 14.5407 56.6426 12.4645 61.4649C10.3882 66.2872 8.23218 71.2627 8.23218 76.5442C8.23218 77.3861 8.39201 78.2281 8.63157 79.0702C10.7077 85.4999 21.1684 90.7814 26.9978 93.7666C31.6293 96.1394 36.4205 98.3593 40.8923 100.962C43.3678 102.263 45.6835 103.87 47.7596 105.631C49.756 103.87 51.9919 102.263 54.3875 100.962C58.8593 98.3593 63.6505 96.1394 68.282 93.7666C74.5106 90.6282 87.1273 84.4281 87.1273 76.5442C87.1273 71.2627 85.0512 66.3638 82.9749 61.5415C80.8988 56.7192 78.4233 51.2846 78.9823 45.9265C79.5413 41.4104 82.0966 38.119 85.5303 35.3634L76.4271 24.341C67.2439 22.8102 57.9809 22.0447 48.6381 22.0447C38.7362 22.0447 28.7546 22.8102 18.9327 24.341Z" fill="white"/>
</mask>
<g mask="url(#mask3_27_258)">
<path d="M87.0474 21.968H8.23218V105.631H87.0474V21.968Z" fill="url(#paint3_radial_27_258)"/>
</g>
<path fill-rule="evenodd" clip-rule="evenodd" d="M20.6095 38.9609L19.8109 41.2573H17.4153L19.4117 42.7117L18.6131 45.008L20.6095 43.5536L22.526 45.008L21.8073 42.7117L23.8035 41.2573H21.3282L20.6095 38.9609Z" fill="white"/>
<path fill-rule="evenodd" clip-rule="evenodd" d="M18.5332 54.5759L17.8146 56.8723H15.3392L17.3354 58.3267L16.6168 60.623L18.5332 59.1686L20.5296 60.623L19.731 58.3267L21.7274 56.8723H19.2519L18.5332 54.5759Z" fill="white"/>
<path fill-rule="evenodd" clip-rule="evenodd" d="M15.8981 68.5836L15.1794 70.8799H12.7041L14.7003 72.3343L13.9019 74.6306L15.8981 73.1762L17.8945 74.6306L17.0959 72.3343L19.0923 70.8799H16.6168L15.8981 68.5836Z" fill="white"/>
<path fill-rule="evenodd" clip-rule="evenodd" d="M47.52 93.0012L46.8013 95.2975L44.326 95.2209L46.3222 96.6753L45.6035 98.9717L47.52 97.5173L49.5164 98.9717L48.7178 96.6753L50.7142 95.2209L48.3186 95.2975L47.52 93.0012Z" fill="white"/>
<path fill-rule="evenodd" clip-rule="evenodd" d="M62.2131 87.2604L61.4145 89.5567H59.0189L61.0153 91.0111L60.2167 93.3074L62.2131 91.853L64.1296 93.3074L63.4109 91.0111L65.3274 89.5567H62.9318L62.2131 87.2604Z" fill="white"/>
<path fill-rule="evenodd" clip-rule="evenodd" d="M32.7472 87.2604L33.4659 89.5567H35.9414L33.945 91.0111L34.7436 93.3074L32.7472 91.853L30.7508 93.3074L31.5494 91.0111L29.553 89.5567H31.9486L32.7472 87.2604Z" fill="white"/>
<path fill-rule="evenodd" clip-rule="evenodd" d="M21.0887 79.8356L21.8073 82.1319H24.2827L22.2865 83.5097L23.0849 85.806L21.0887 84.4282L19.0923 85.806L19.8909 83.5097L17.8945 82.1319H20.37L21.0887 79.8356Z" fill="white"/>
<mask id="mask4_27_258" style="mask-type:luminance" maskUnits="userSpaceOnUse" x="23" y="30" width="49" height="31">
<path d="M23.8835 60.2404H71.5559C71.8754 45.6969 63.89 30.6942 47.6798 30.6942C31.4695 30.6942 23.4843 45.6969 23.8835 60.2404Z" fill="white"/>
</mask>
<g mask="url(#mask4_27_258)">
<path d="M71.8754 30.6942H23.4843V60.2402H71.8754V30.6942Z" fill="url(#paint4_radial_27_258)"/>
</g>
<path fill-rule="evenodd" clip-rule="evenodd" d="M23.8835 58.7859H37.2989V59.3218H23.8036V59.2452L23.8835 58.7859Z" fill="#CAA52E"/>
<path fill-rule="evenodd" clip-rule="evenodd" d="M23.9634 56.26L37.2988 58.786L37.1392 59.3218L23.9634 56.7959V56.26Z" fill="#CAA52E"/>
<path fill-rule="evenodd" clip-rule="evenodd" d="M24.2827 53.6574L37.3787 58.7859L37.1392 59.3218L24.2029 54.2699C24.2029 54.0403 24.2029 53.8106 24.2827 53.6574Z" fill="#CAA52E"/>
<path fill-rule="evenodd" clip-rule="evenodd" d="M24.7618 50.8254L37.3788 58.7859L37.0593 59.2452L24.6821 51.4377C24.6821 51.208 24.7618 51.055 24.7618 50.8254Z" fill="#CAA52E"/>
<path fill-rule="evenodd" clip-rule="evenodd" d="M25.6403 47.7635L37.4585 58.8625L37.0593 59.2452L25.4805 48.3758L25.6403 47.7635Z" fill="#CAA52E"/>
<path fill-rule="evenodd" clip-rule="evenodd" d="M27.0777 44.2424L37.5384 58.9389L37.0593 59.2452L26.7582 44.8549L27.0777 44.2424Z" fill="#CAA52E"/>
<path fill-rule="evenodd" clip-rule="evenodd" d="M29.3134 40.3387L37.5384 58.939L36.9794 59.1686L28.9142 40.8746C29.0739 40.7216 29.1538 40.5684 29.3134 40.3387Z" fill="#CAA52E"/>
<path fill-rule="evenodd" clip-rule="evenodd" d="M32.6673 36.4349L37.5384 59.0155L36.9794 59.0921L32.1882 36.8178C32.348 36.7412 32.5076 36.5881 32.6673 36.4349Z" fill="#CAA52E"/>
<path fill-rule="evenodd" clip-rule="evenodd" d="M37.4585 33.0671L37.5384 59.0922H36.9794L36.8997 33.3734L37.4585 33.0671Z" fill="#CAA52E"/>
<path fill-rule="evenodd" clip-rule="evenodd" d="M43.2878 31.077L37.5384 59.1686L36.9794 59.0922L42.7288 31.2301L43.2878 31.077Z" fill="#CAA52E"/>
<path fill-rule="evenodd" clip-rule="evenodd" d="M49.756 30.7708L37.5384 59.2452L36.9794 59.0156L49.1969 30.7708H49.756Z" fill="#CAA52E"/>
<path fill-rule="evenodd" clip-rule="evenodd" d="M56.304 32.3016L37.4585 59.2452L36.9794 58.939L55.745 32.1486L56.304 32.3016Z" fill="#CAA52E"/>
<path fill-rule="evenodd" clip-rule="evenodd" d="M61.9735 35.8227L37.3788 59.3219L36.9794 58.939L61.5743 35.4401C61.734 35.5931 61.8139 35.6697 61.9735 35.8227Z" fill="#CAA52E"/>
<path fill-rule="evenodd" clip-rule="evenodd" d="M66.3655 40.798L37.3787 59.3218L37.0593 58.8626L66.1259 40.2623C66.2057 40.492 66.2856 40.645 66.3655 40.798Z" fill="#CAA52E"/>
<path fill-rule="evenodd" clip-rule="evenodd" d="M69.2402 46.6155L37.2988 59.3983L37.0593 58.8626L69.0804 46.0796C69.1603 46.2328 69.2402 46.4624 69.2402 46.6155Z" fill="#CAA52E"/>
<path fill-rule="evenodd" clip-rule="evenodd" d="M70.9969 52.8155L37.2989 59.3982L37.1392 58.8625L70.9172 52.2796L70.9969 52.8155Z" fill="#CAA52E"/>
<path fill-rule="evenodd" clip-rule="evenodd" d="M71.476 59.0922L37.1392 59.3218V58.786L71.476 58.5563V59.0922Z" fill="#CAA52E"/>
<path fill-rule="evenodd" clip-rule="evenodd" d="M37.2189 50.8254C42.0101 50.8254 46.0029 54.4995 46.0029 59.0922H28.4351C28.515 54.4995 32.4277 50.8254 37.2189 50.8254Z" fill="#CAA52E"/>
<path fill-rule="evenodd" clip-rule="evenodd" d="M37.2189 51.5143C41.6109 51.4377 45.2043 54.7292 45.2842 58.939H29.1538C29.3135 54.7292 32.9069 51.4377 37.2189 51.5143Z" fill="#FACB13"/>
<mask id="mask5_27_258" style="mask-type:luminance" maskUnits="userSpaceOnUse" x="23" y="59" width="45" height="29">
<path d="M23.8036 59.3218C23.8036 60.3933 23.8835 61.4649 23.9634 62.5366C29.4733 62.6897 36.5802 62.3834 36.7398 63.3786C36.7398 63.5316 37.0593 63.4552 37.2989 63.3786C37.5384 63.302 37.778 63.2255 37.6183 63.3786C35.0629 66.0576 38.2571 70.7268 41.3714 73.0997C51.2733 80.448 47.6799 84.6578 39.6146 86.2652C42.17 87.1838 44.8849 87.643 47.6 87.5666C56.7831 87.5666 63.2513 82.8207 67.164 76.1614C61.2549 73.8651 51.1933 72.7169 48.7977 67.665C47.9992 65.9811 52.7904 62.8427 53.509 61.4649C54.9464 58.8625 45.6036 59.3982 45.923 59.2452L23.9634 59.1686C24.1231 59.1686 24.0431 59.2452 23.8036 59.3218Z" fill="white"/>
</mask>
<g mask="url(#mask5_27_258)">
<path d="M67.2439 58.8625H23.8835V87.5666H67.2439V58.8625Z" fill="url(#paint5_linear_27_258)"/>
</g>
<mask id="mask6_27_258" style="mask-type:luminance" maskUnits="userSpaceOnUse" x="23" y="58" width="26" height="30">
<path d="M23.8035 59.1686V59.0156C22.6057 65.2923 25.4007 75.0133 31.3098 81.0603C36.1809 86.0356 43.0483 88.1789 45.8431 87.7963H46.4021C46.7216 87.7963 46.9611 87.8727 47.0409 87.643C53.1897 76.6207 30.9106 64.2205 46.7216 59.3218C47.8395 59.0156 45.8431 58.8625 42.5691 58.8625C37.1392 58.8625 28.1156 59.1686 23.8035 59.1686Z" fill="white"/>
</mask>
<g mask="url(#mask6_27_258)">
<path d="M53.2695 58.8625H22.6058V88.1789H53.2695V58.8625Z" fill="url(#paint6_linear_27_258)"/>
</g>
<mask id="mask7_27_258" style="mask-type:luminance" maskUnits="userSpaceOnUse" x="47" y="45" width="25" height="15">
<path d="M68.6013 46.0031C63.0117 46.0795 63.4908 52.3562 59.578 52.7389C58.6197 52.8155 56.3838 52.1266 54.7867 51.8204C52.6307 51.5143 48.3985 56.413 47.4403 59.0156H71.476C71.476 54.5759 70.6776 50.1365 69.0007 45.9265C68.9208 46.0031 68.7612 46.0031 68.6013 46.0031Z" fill="white"/>
</mask>
<g mask="url(#mask7_27_258)">
<path d="M71.4762 46.0032H47.4403V59.0922H71.4762V46.0032Z" fill="url(#paint7_linear_27_258)"/>
</g>
<path fill-rule="evenodd" clip-rule="evenodd" d="M33.7055 75.4725C30.5113 69.2725 32.1882 65.5219 36.5802 63.149C34.5838 66.5169 37.5384 69.4257 41.6909 72.5639C38.8959 73.0232 36.181 73.9417 33.7854 75.3961L33.7055 75.4725Z" fill="white"/>
<mask id="mask8_27_258" style="mask-type:luminance" maskUnits="userSpaceOnUse" x="45" y="59" width="27" height="20">
<path d="M49.1172 71.875C53.0299 75.7788 60.2167 76.3147 65.487 78.917C69.4798 73.7121 71.476 66.6701 71.5559 59.7045V59.4749L47.5999 59.2452C45.364 62.4601 44.1662 66.8997 49.1172 71.875Z" fill="white"/>
</mask>
<g mask="url(#mask8_27_258)">
<path d="M71.476 59.1686H44.1662V78.917H71.476V59.1686Z" fill="url(#paint8_linear_27_258)"/>
</g>
<mask id="mask9_27_258" style="mask-type:luminance" maskUnits="userSpaceOnUse" x="58" y="52" width="14" height="7">
<path d="M66.2057 52.9685C64.2095 53.1981 62.7721 56.3366 58.8593 58.7093H71.5559C71.5559 57.0255 71.3963 55.3414 71.1567 53.734C69.9589 53.581 68.0425 53.1217 66.6848 52.9685H66.2057Z" fill="white"/>
</mask>
<g mask="url(#mask9_27_258)">
<path d="M71.5559 52.9685H58.8593V58.7093H71.5559V52.9685Z" fill="url(#paint9_linear_27_258)"/>
</g>
<path d="M38.7362 43.7832H35.542V45.3906H38.7362V43.7832Z" fill="#FACB13"/>
<path fill-rule="evenodd" clip-rule="evenodd" d="M48.7178 40.3387C50.7941 40.1857 52.8702 40.4153 54.7867 41.0276C56.304 41.5635 56.8629 41.5635 58.3002 42.7883L56.2241 44.0895C54.068 41.7931 51.4329 41.4105 48.7178 40.645C47.52 40.2623 47.52 40.3387 48.7178 40.3387Z" fill="white"/>
<path fill-rule="evenodd" clip-rule="evenodd" d="M57.342 42.7117C59.0189 42.8647 61.0153 41.5636 61.8139 41.4105C62.1332 41.3339 62.6123 41.8698 62.3727 42.0228C61.9735 42.2524 61.4944 42.4821 61.0153 42.6351C61.4944 42.4055 61.9735 42.1758 62.5326 42.0228C62.9318 42.0994 63.1713 42.7117 63.0117 42.8647C63.0117 42.8647 61.6541 43.171 61.2549 43.4006C61.8139 43.171 62.3727 43.018 63.0117 42.8647C63.2513 42.8647 63.4908 43.5536 63.1713 43.7069C62.2131 44.3191 61.0153 44.3191 60.0571 44.7018C60.4563 46.0796 61.4145 47.7636 61.3348 49.218C61.2549 51.5144 59.9771 53.6575 59.5779 55.8008C59.4183 56.6427 59.498 56.8723 59.3384 55.8774C58.8593 53.1218 58.6197 48.1463 57.2623 46.3092C56.7831 45.9266 56.2241 45.6969 55.5853 45.4673C55.0263 45.3143 54.5472 45.2377 53.9881 45.2377C53.5889 45.3143 52.7106 45.5439 52.3112 45.6203C52.4711 44.9314 52.9502 43.0944 54.3076 43.2476L57.342 42.7117Z" fill="white"/>
<path fill-rule="evenodd" clip-rule="evenodd" d="M57.9809 67.0527L57.901 67.8182L58.9392 68.5071V67.665L57.9809 67.0527ZM57.5815 80.0652V80.8307L57.6615 80.9073H58.6996L57.5815 80.0652ZM57.5815 78.611V79.3763L59.3384 80.6777V79.9122L57.5815 78.611ZM57.6615 77.1566V77.9221L59.4183 79.1467V78.3813L57.6615 77.1566ZM57.6615 75.7022L57.5815 76.4677L59.1787 77.6158V76.7739L57.6615 75.7022ZM57.7414 74.2479V75.0133L59.2585 76.085V75.3195L57.7414 74.2479ZM57.8211 72.7935V73.5591L59.2585 74.554V73.7121L57.8211 72.7935ZM57.8211 71.3391V72.1047L59.0988 73.0232V72.1813L57.8211 71.3391ZM57.901 69.8849L57.8211 70.6503L59.0189 71.4924V70.6503L57.901 69.8849ZM57.9809 68.4305L57.901 69.196L59.0189 69.9614L58.9392 69.1194L57.9809 68.4305Z" fill="#AB9276"/>
<mask id="mask10_27_258" style="mask-type:luminance" maskUnits="userSpaceOnUse" x="33" y="48" width="8" height="11">
<path d="M33.7054 48.6055V58.7859H40.8123L40.7326 48.6055H33.7054Z" fill="white"/>
</mask>
<g mask="url(#mask10_27_258)">
<path d="M40.7326 48.6055H33.7054V58.7859H40.7326V48.6055Z" fill="url(#paint10_linear_27_258)"/>
</g>
<mask id="mask11_27_258" style="mask-type:luminance" maskUnits="userSpaceOnUse" x="35" y="41" width="5" height="8">
<path d="M37.2189 41.0276C36.8197 41.0276 36.5802 41.5634 36.2607 41.9461C36.0211 42.1757 35.8615 42.4054 35.6219 42.635V46.7684L35.7816 46.998L35.7019 48.4524H38.7362L38.6563 46.9216L39.2953 46.7684L39.2153 45.3142L39.1354 42.9412C38.7362 42.5586 38.4168 42.1757 38.0975 41.7931C37.6981 41.4104 37.8579 40.9512 37.2189 41.0276Z" fill="white"/>
</mask>
<g mask="url(#mask11_27_258)">
<path d="M39.1355 40.9512H35.5421V48.376H39.1355V40.9512Z" fill="url(#paint11_linear_27_258)"/>
</g>
<path d="M38.5766 43.8599H35.7018V45.1611H38.5766V43.8599Z" fill="#FACB13"/>
<path fill-rule="evenodd" clip-rule="evenodd" d="M36.3406 9.49158C37.5384 9.568 38.5765 10.2569 38.4966 11.1754C38.4167 12.094 37.8579 16.3806 37.8579 16.3806L33.0667 16.6866L33.945 10.7928C33.945 10.8694 35.1428 9.49158 36.3406 9.49158Z" fill="#EAD7B1"/>
<path d="M35.1428 11.405C34.9832 13.0124 34.7436 14.0076 34.6637 15.615C35.4623 15.5384 36.1011 15.5384 36.7398 15.462C36.8997 13.931 37.1392 12.7828 37.2989 11.252C36.8997 10.4101 35.7816 10.4865 35.1428 11.405Z" fill="#6E4E32"/>
<path d="M60.6161 15.615C60.4562 14.0842 60.2966 12.9361 60.1369 11.4051C59.498 10.4865 58.3801 10.3335 57.9809 11.252C58.1405 12.7829 58.3002 13.931 58.5397 15.462C59.1787 15.5384 59.7375 15.615 60.6161 15.615Z" fill="#6E4E32"/>
<path d="M50.7941 18.2176V17.6051C50.6343 15.615 50.4747 12.4001 47.8395 12.4001C45.2043 12.4001 45.1244 15.6916 44.9648 17.6817V18.141L50.7941 18.2176Z" fill="#6E4E32"/>
<path d="M47.8395 11.6347C51.2732 11.6347 51.353 15.5384 51.5925 17.9879V18.2176H52.2315V18.0644C52.1516 17.3755 52.0717 16.6866 51.9919 15.9977H53.5889L53.8285 18.0644L53.9084 18.2176H54.5472V18.0644L54.3076 15.9977L57.1024 16.0743L57.1823 16.9162L58.46 16.9928C59.1787 17.0694 59.8974 17.0694 60.5362 17.1458L62.4527 17.299L62.3727 16.3805C63.5705 16.4569 64.7683 16.5335 65.9661 16.6866L66.5252 18.9065L66.6051 19.2891H67.2439L67.1639 18.7533L66.6848 16.8398L71.0768 17.3755L72.035 19.4422L72.115 19.6718L72.1947 19.825L72.9933 19.9014V19.7484L68.2021 9.26191L69.879 9.49154L71.6358 8.03714L72.9134 5.35816C73.0732 4.36302 73.0732 3.29146 72.9933 2.29633C72.035 2.1433 66.5252 1.07156 66.0461 1.07156L61.9735 2.8322V0.612292L55.1062 0.0766054L52.7106 2.21972H51.1933V0H44.326V2.21972L42.8886 2.29633L40.493 0.153027L33.5458 0.688898V2.8322L29.6329 1.14816C29.1538 1.07156 23.7238 2.1433 22.7656 2.29633C22.7656 2.90862 22.6058 4.89889 22.8453 5.35816C24.4425 8.49641 23.2447 7.34824 26.1194 9.33833L27.4769 9.1853L22.7656 19.7484V19.978L23.4843 19.9014L23.564 19.7484L24.6821 17.299L29.0739 16.7632L28.4351 19.0595V19.5954H28.9942L29.2337 18.5236L29.7128 16.7632C30.8307 16.6866 31.8689 16.5335 32.9868 16.4569L32.9069 17.299L34.7436 17.1458C35.4623 17.0694 36.181 17.0694 36.8197 16.9928L38.0175 16.8398L38.0974 16.0743C39.1354 15.9977 40.2535 15.9977 41.2915 15.9213L41.1318 17.6051L41.0519 18.3706H41.6908V18.0644L41.9304 15.9213L43.5274 15.8446L43.6073 15.2324L38.337 15.5384L38.6563 13.3953L44.4857 13.1657C43.9266 14.6199 43.6073 16.1509 43.5274 17.7583L43.3678 18.3706H44.0065V18.0644C44.326 15.615 44.4857 11.6347 47.8395 11.6347ZM56.9428 10.0272C53.9881 9.8742 51.1134 9.7976 48.159 9.7976V7.65448C51.5128 7.65448 54.8666 7.80751 58.2205 8.03714L58.3801 9.1853L58.1406 9.26191C57.7414 9.33833 57.2622 9.64457 56.9428 10.0272ZM56.3837 11.4816C56.4637 11.9409 56.4636 12.3236 56.5436 12.7064L53.8285 12.6298L53.6688 10.4101C54.6271 10.4101 55.5853 10.4865 56.5436 10.5631L56.4637 10.7161L56.304 11.099L56.3837 11.4816ZM60.5362 16.3805C59.8175 16.3039 59.0988 16.3039 58.46 16.2273L57.8211 16.1509L57.7414 15.5384C57.5815 14.1606 57.342 12.7064 57.1823 11.3286V11.099L57.2622 10.9458C57.5018 10.4865 57.901 10.1038 58.46 9.95081C59.4183 9.7976 60.3765 10.1804 60.7757 11.0224L60.8556 11.1754V11.3286C61.0153 12.7064 61.2549 14.1606 61.3348 15.5384L61.4145 16.4569L60.5362 16.3805ZM61.6541 11.3286L61.5743 11.0224C62.5326 11.099 63.4908 11.1754 64.3691 11.3286L64.9282 13.4717C63.89 13.3953 62.8519 13.3187 61.8139 13.1657C61.8139 12.4768 61.734 11.9409 61.6541 11.3286ZM70.7573 16.6102H70.6776C67.8826 16.2273 65.0878 15.9977 62.293 15.768V15.5384C62.2131 14.9261 62.1332 14.3138 62.0534 13.7014C64.6087 13.931 67.2439 14.1606 69.7991 14.5435L70.7573 16.6102ZM69.4798 13.931H69.3999L65.7266 13.4717L65.1677 11.3286L68.5216 11.7113L69.4798 13.931ZM68.2021 11.099H68.1222L61.2549 10.4101C60.6958 9.7976 59.9771 9.33833 59.0988 9.26191L58.8593 8.11375C61.6541 8.34338 64.4491 8.64943 67.1639 9.03228L68.2021 11.099ZM65.9661 1.91367V3.29146C65.1677 3.21486 64.2892 3.06183 63.4908 2.90862L65.9661 1.91367ZM55.1859 0.995136V2.29633H53.7486L55.1859 0.995136ZM40.493 0.995136L41.9304 2.29633L40.493 2.37293V0.995136ZM29.6329 1.99009L32.1882 3.06183L29.6329 3.36788V1.99009ZM24.3626 6.65935C23.2447 4.59265 23.4843 5.35816 23.4843 2.90862C25.3208 2.60256 27.0777 2.29633 28.9142 1.99009V4.13339C30.7508 3.90375 32.5076 3.67412 34.3442 3.52109V1.30119C36.181 1.14816 37.9376 0.995136 39.7744 0.91853V3.13825C41.531 3.06183 43.2878 2.98522 45.1244 2.90862V0.688898H50.5546V2.90862C52.3911 2.90862 54.148 2.98522 55.9845 3.06183V0.841925C57.8211 0.91853 59.5779 1.07156 61.4145 1.22477V3.44449C63.1713 3.59752 65.0079 3.82715 66.8447 4.05678V1.99009C68.6013 2.29633 70.438 2.60256 72.2746 2.90862C72.2746 5.43458 72.5142 4.51605 71.3164 6.73595C63.2513 5.43458 55.1859 4.82228 47.1208 4.82228C39.5348 4.89889 31.9486 5.51118 24.3626 6.65935ZM26.359 8.57301C25.6403 8.11375 25.2409 7.80751 24.6022 7.27164C39.934 4.89889 55.6651 4.89889 71.0768 7.42485L69.5595 8.72604L61.6541 7.65448C49.8359 6.50632 38.0175 6.81237 26.359 8.57301ZM28.2755 9.1087C31.0703 8.72604 33.945 8.4198 36.7398 8.19017L36.5003 9.1853C35.4623 9.1853 34.5838 9.64457 33.945 10.4101L27.3172 11.099L28.2755 9.1087ZM27.0777 11.7113L30.4315 11.3286L29.8725 13.5483L26.0395 14.0076L27.0777 11.7113ZM33.0667 15.5384V15.8446C30.3516 16.0743 27.6365 16.3039 24.9216 16.6866L25.8799 14.5435C28.3552 14.2372 30.8307 13.931 33.3062 13.778C33.1464 14.3902 33.0667 15.0027 33.0667 15.5384ZM33.5458 11.3286C33.4659 11.9409 33.386 12.5532 33.3062 13.1657L30.5113 13.3953L31.1502 11.1754C31.9486 11.099 32.7472 11.0224 33.5458 10.9458V11.3286ZM38.0974 11.405C37.9376 12.8594 37.6981 14.2372 37.5384 15.615L37.4585 16.2273L36.7398 16.3039C36.0211 16.3805 35.3025 16.3805 34.6637 16.4569L33.7055 16.5335L33.7854 15.615C33.945 14.2372 34.1846 12.7828 34.2645 11.405V11.252L34.3442 11.099C34.8233 10.2569 35.7816 9.8742 36.7398 10.0272C37.2189 10.1804 37.6981 10.4865 37.9376 10.9458L38.0175 11.099L38.0974 11.405ZM38.2571 10.0272C37.9376 9.64457 37.5384 9.41494 37.1392 9.26191L37.3788 8.03714C40.7326 7.80751 44.1662 7.65448 47.52 7.65448V9.72117C44.4856 9.72117 41.3714 9.7976 38.2571 10.0272ZM41.6908 12.7064C40.6527 12.7064 39.6944 12.7828 38.6563 12.8594C38.7362 12.4002 38.8161 11.9409 38.8161 11.5582L38.8959 11.1754L38.7362 10.7161L38.6563 10.6397C39.6944 10.5631 40.8123 10.5631 41.8505 10.4865L41.6908 12.7064ZM42.3296 12.7064L42.4893 10.4865C46.0029 10.4101 49.5164 10.3335 53.0299 10.4865L53.2695 12.6298L50.8739 12.5532C51.0337 12.7064 51.1134 12.936 51.1933 13.1657L56.6233 13.3953L56.9428 15.5384L51.912 15.3088V15.5384C51.5128 13.2421 50.6343 11.0224 47.7596 11.0224C46.5618 10.9458 45.364 11.5582 44.7252 12.5532L42.3296 12.7064Z" fill="#6E4E32"/>
<path d="M38.1772 52.2032H36.5002V53.734H38.1772V52.2032Z" fill="#405965"/>
<path d="M40.493 76.3146C40.7326 76.1614 40.8123 75.8554 40.6527 75.6257C40.6527 75.5491 40.5728 75.5491 40.493 75.4725H39.1354V74.7072C39.1354 74.554 38.9758 74.401 38.8161 74.401H38.0974C37.9376 74.401 37.778 74.554 37.778 74.7072V75.4725H34.6637C36.8197 74.3244 39.2153 73.4824 41.6109 73.0998L42.8886 72.8701L41.8505 72.1046C40.0139 70.7269 36.6601 68.2775 36.4205 65.828C36.3406 65.0626 36.5802 64.2971 36.9794 63.6082L38.0974 61.7712L36.101 62.7663C30.5912 65.6749 30.5113 70.5738 33.0667 75.4725H32.2681V75.0133H31.2299V75.4725H30.0321C29.7128 75.7022 29.7128 76.0084 30.0321 76.3146C33.4659 76.9269 36.9794 76.9269 40.493 76.3146ZM36.4205 63.302C34.4241 66.6701 37.2988 69.4257 41.531 72.5639C38.7362 73.0232 36.101 73.9417 33.7854 75.3961C30.7508 69.5787 32.0285 65.5983 36.4205 63.302Z" fill="#405965"/>
<path d="M54.3875 43.9364C54.2277 43.9364 54.0681 44.0128 54.0681 44.166C54.0681 44.3191 54.148 44.4721 54.3076 44.4721C54.4673 44.4721 54.6271 44.3957 54.6271 44.2425C54.6271 44.0894 54.5472 44.0128 54.3875 43.9364Z" fill="#405965"/>
<path d="M83.3743 46.4625C83.9331 42.0228 87.2072 38.961 91.0402 36.5882L91.7589 36.2054L78.9024 20.667L78.6628 20.5904C77.1457 20.2843 75.6284 20.0547 74.1112 19.8251C69.4798 19.2126 66.1259 18.8299 63.2512 18.5237L60.8556 18.3707H60.7757L60.057 18.2941H59.7375C57.9809 18.2176 56.2241 18.141 54.4672 18.0644H53.2694C46.8013 17.9114 41.1318 18.141 37.0593 18.3707C35.6219 18.4473 26.5985 19.2892 24.9216 19.5188H24.6821C22.6057 19.8251 18.3736 20.4374 16.8563 20.667L4.0799 36.2054L4.79858 36.5882C8.63154 38.8846 11.9055 42.0228 12.4645 46.4625C13.0233 50.9019 10.3882 55.9538 8.63154 59.9342C6.31566 65.2923 4.15962 70.5739 4.15962 76.4677C4.15962 77.6925 4.31946 78.9937 4.71866 80.2184C5.99638 84.1222 9.11066 87.2604 12.4645 89.7864C16.4571 92.6186 20.6893 95.1446 25.1612 97.2877C29.7128 99.584 34.3442 101.804 38.7362 104.33C41.6908 106.014 45.5238 108.54 47.1208 111.448L47.7595 112.673L48.3985 111.448C49.9955 108.54 53.9084 106.014 56.7831 104.33C61.1749 101.804 65.8065 99.584 70.3581 97.2877C74.8298 95.1446 79.0622 92.6186 83.0548 89.7864C86.4086 87.2604 89.5229 84.1222 90.8006 80.2184C91.1998 78.9937 91.3595 77.7689 91.3595 76.4677C91.3595 70.5739 89.2034 65.2923 86.8877 59.9342C85.2907 55.9538 82.8152 50.9019 83.3743 46.4625ZM47.8395 111.142C41.6908 99.8902 4.8783 93.3075 4.8783 76.4677C4.8783 59.6279 23.4843 47.2278 5.11786 35.9758L17.1758 21.2793C38.8161 17.7584 59.2584 17.7584 78.5032 21.2793L90.5611 35.9758C72.1947 47.2278 90.7207 59.6279 90.7207 76.4677C90.7207 93.3075 53.9881 99.9668 47.8395 111.142Z" fill="#405965"/>
<path fill-rule="evenodd" clip-rule="evenodd" d="M29.6329 3.36791L32.348 3.06186L29.6329 1.9137V3.36791Z" fill="#EAD7B1"/>
<path d="M83.6139 61.2353C81.6175 56.5663 79.1419 51.2081 79.7809 46.0796C80.26 41.8698 82.6556 38.5783 86.0095 35.8993L86.5683 35.4401L76.8263 23.8052L76.5867 23.7288C57.5018 20.4373 38.0975 20.82 19.0124 23.7288L18.6931 23.8052L9.1107 35.4401L9.58982 35.8993C12.9437 38.5783 15.3393 41.8698 15.8184 46.0796C16.4571 51.2847 13.9816 56.5663 11.9055 61.2353C9.82938 66.1342 7.67334 71.1095 7.67334 76.4677C7.67334 77.3862 7.83298 78.3047 8.07254 79.1467C10.2286 85.806 20.6096 91.0876 26.7582 94.226C31.3898 96.5987 36.1011 98.7421 40.4931 101.345C42.8887 102.646 45.0447 104.253 47.1208 106.014L47.6799 106.473L48.159 106.014C50.1552 104.253 52.3911 102.646 54.7867 101.345C59.2585 98.7421 63.9699 96.5223 68.5216 94.226C75.1493 90.8579 87.6065 84.6579 87.6065 76.4677C87.846 71.1095 85.69 66.1342 83.6139 61.2353ZM68.3618 93.6135C63.7304 95.9865 59.0189 98.2062 54.5472 100.809C52.1516 102.187 49.9156 103.717 47.8395 105.554C45.7634 103.717 43.5274 102.187 41.1318 100.809C36.6601 98.2062 31.9486 95.9865 27.3173 93.6135C21.4879 90.6283 11.0272 85.3468 8.95087 78.917C8.71131 78.0751 8.55166 77.2332 8.55166 76.3911C8.55166 71.1095 10.6278 66.2108 12.7041 61.3885C14.7802 56.5663 17.2557 51.2081 16.6168 45.8499C16.0579 41.4105 13.5025 37.966 10.0689 35.2104L15.1794 29.0103L27.956 41.1043C19.8909 54.0403 21.8074 74.8603 33.945 83.8925C37.9376 86.8778 42.8087 88.4086 47.8395 88.332C56.6233 88.332 63.0914 84.1986 67.164 78.1517L77.8644 88.332C74.8299 90.2456 71.6359 92.0061 68.3618 93.6135ZM49.9955 30.9238H50.2351C51.912 31.077 53.6689 31.4597 55.2659 31.9956L55.745 32.1486H55.8249L56.3838 32.3782L56.4637 32.4548L56.7831 32.6079C58.3801 33.2968 59.8175 34.1387 61.1749 35.2104L62.0535 35.8993L62.3727 36.2054C63.7304 37.4301 64.9282 38.8079 65.9662 40.2623L66.0461 40.3388C66.126 40.492 66.2856 40.645 66.3655 40.798L66.2057 40.5684L66.3655 40.7216V40.798C67.3238 42.2524 68.1222 43.7068 68.7611 45.3143H68.6013C66.4453 45.3143 64.4491 46.4624 63.4109 48.2229C63.4109 48.2995 63.0914 48.7588 62.9318 49.0648C62.5326 49.7537 62.0535 50.4426 61.5743 51.1315C61.6541 50.7488 61.734 50.3662 61.8139 49.9833C61.8139 49.8303 61.8139 49.6773 61.8936 49.4476C61.9735 49.2944 61.8936 48.8352 61.8936 48.8352C61.8936 47.4574 61.1749 46.2328 60.7757 45.008C61.734 44.855 62.6123 44.5488 63.4908 44.1661C63.9699 43.7833 64.0497 43.0944 63.6505 42.6351C63.6505 42.4821 63.5705 42.329 63.5705 42.2524C63.5705 42.1758 63.4109 42.0228 63.4109 41.9462C63.331 41.7932 63.1713 41.6401 63.0117 41.5635C62.7721 41.1043 62.293 40.798 61.734 40.8746C61.2549 41.0277 60.8557 41.1809 60.4563 41.3339C59.9771 41.5635 59.5779 41.8698 59.0988 42.0228C58.9392 42.0994 58.7794 42.0994 58.6197 42.1758C58.0607 41.7932 57.4219 41.4105 56.7831 41.1043C56.6233 41.0277 56.3837 40.9512 55.9845 40.798L55.2659 40.5684C53.9881 40.1091 52.6307 39.8795 51.2733 39.8031C50.7941 39.8031 50.3947 39.7265 49.756 39.7265H49.0373C48.5582 39.7265 47.5999 39.6499 47.52 40.2623C47.4403 40.8746 48.3186 41.0277 48.7977 41.1809H48.8777L50.2351 41.4869C51.5128 41.7932 52.7903 42.1758 53.9882 42.7883C53.2695 42.9413 52.7106 43.4006 52.4711 44.0129L52.3112 44.3957C52.1516 44.7784 52.0717 45.1611 51.9919 45.5439L51.8321 46.3092L52.7903 46.0796C53.1897 46.0032 53.6689 45.9266 54.0681 45.8499C54.4673 45.8499 54.9464 45.9266 55.3458 46.0796C55.6651 46.1562 55.9845 46.3092 56.304 46.4624H56.3838C56.6233 46.5388 56.8629 46.6921 57.0227 46.8451V46.9217C57.5018 48.0699 57.8211 49.218 57.9809 50.4426V50.5192C57.9809 50.6722 58.0607 50.8254 58.0607 51.0551C58.0607 51.2847 58.1406 51.5143 58.1406 51.6674V51.9736C57.8211 51.897 57.4219 51.8204 57.1823 51.744L56.9428 51.6674H56.8629L54.9464 51.2081C53.9882 51.2081 53.0299 51.5908 52.3112 52.2797C52.0717 52.4329 51.8321 52.6625 51.5925 52.8155C51.0337 53.2748 50.4747 53.8107 49.9955 54.3464C49.9156 54.423 49.8359 54.4996 49.756 54.6526C49.3568 55.1119 49.0373 55.5711 48.6381 56.0304L48.159 56.7193C47.9991 57.0255 47.8395 57.2552 47.6799 57.4848C47.4403 57.8674 47.2805 58.1737 47.1208 58.5563H41.3714V48.2995H39.1354L39.0557 47.0747H39.6945V44.7784H39.1354V44.0895H39.6145V43.324C39.6145 42.6351 39.1354 42.0228 38.4167 41.7932V41.5635C38.4167 41.1043 38.0975 40.7216 37.6183 40.5684C37.5384 40.5684 37.3788 40.492 37.2989 40.492H37.0593C36.5802 40.5684 36.181 41.0277 36.181 41.4869V41.7166C35.542 41.9462 35.0629 42.5587 35.0629 43.2476V44.0129H35.542V44.7018H35.0629V46.9981H35.7816L35.7019 48.2229H33.4659V58.4797H24.0431V57.4848C24.0431 56.9489 24.1231 56.7959 24.1231 56.107V55.5711C24.203 54.6526 24.2827 53.8107 24.5223 52.9686C24.5223 52.8155 24.6022 52.5859 24.6022 52.4329C24.7618 51.5908 24.9217 50.9785 25.0014 50.3662C25.0813 50.0599 25.1612 49.8303 25.2409 49.5241V49.4476C25.3209 49.1414 25.4008 48.8352 25.5604 48.3759C25.7201 47.9166 25.8799 47.4574 26.0395 46.9981C26.1195 46.6921 26.2791 46.3858 26.4387 46.0032V45.9266C26.6783 45.2377 26.9978 44.5488 27.3173 43.9365L27.397 43.7833C27.8761 42.7883 28.4351 41.7932 29.0739 40.8746C29.553 40.1091 30.1121 39.4202 30.6711 38.7313L30.9904 38.3487L31.0703 38.2721C31.6293 37.5068 32.348 36.8179 33.0667 36.2054L33.1464 36.129C34.1047 35.2104 35.2227 34.4449 36.3406 33.756H36.4205C36.8197 33.4498 37.2989 33.2202 37.778 32.9905C37.8579 32.9141 38.0175 32.8375 38.0975 32.8375C39.2953 32.2252 40.5728 31.7659 41.9304 31.3831H42.0101C42.5692 31.2301 43.1282 31.077 43.6871 31.0004C45.1244 30.7708 46.5618 30.6178 47.9991 30.6178H49.1969L49.5164 30.6942C49.5164 30.8474 49.756 30.8474 49.9955 30.9238ZM24.0431 59.1686H46.7216C46.0029 59.3983 45.364 59.6279 44.6453 59.9341L44.4857 60.0107L43.9266 60.3168C43.767 60.3934 43.5274 60.5464 43.3678 60.623C41.8505 61.3885 40.8923 62.996 40.8923 64.6034C40.8923 65.3687 41.0519 66.0576 41.2117 66.8231L41.2915 67.0528C41.3714 67.2824 41.4513 67.5886 41.6109 67.8947C42.0101 68.8132 42.4095 69.6553 42.8887 70.5738L43.9266 72.4109C45.4439 75.1665 47.1208 77.9985 47.8395 80.9837C48.3186 82.7444 48.2387 84.6579 47.5999 86.4185C47.52 86.6481 47.4403 86.8012 47.3604 87.0308C47.2805 87.2604 47.2007 87.337 47.1208 87.4901C46.5618 87.4901 45.923 87.4135 45.364 87.4135C42.17 87.1074 39.1354 86.1123 36.4205 84.5048C27.6365 79.2233 23.8036 68.5072 24.0431 59.1686ZM35.8615 49.8303V48.9118H36.8197V49.8303H37.778V48.9118H38.7362V49.8303H39.6945V48.9118H40.6527V50.9019H33.945V48.9118H34.9033V49.8303H35.8615ZM37.2989 42.2524C38.1772 42.2524 38.8959 42.7883 38.8959 43.4006V43.5536H35.6219V43.4006C35.7019 42.7117 36.4205 42.2524 37.2989 42.2524ZM36.7398 41.6401C36.7398 41.4105 36.9794 41.1809 37.2189 41.1809C37.4585 41.1809 37.6981 41.4105 37.6981 41.6401V41.7166H37.2189C37.0593 41.7166 36.8997 41.7166 36.7398 41.7932V41.6401ZM38.4167 44.0895V44.7784H37.6183V44.0895H38.4167ZM36.9794 44.855H36.181V44.1661H36.9794V44.855ZM39.0557 46.5388H35.6219V45.3907H39.1354L39.0557 46.5388ZM38.4167 48.2995H36.181L36.2607 47.0747H38.337L38.4167 48.2995ZM40.6527 54.2699H33.945V51.5143H40.7326L40.6527 54.2699ZM40.6527 54.8822V58.4797H38.1772V56.4897C38.2571 56.0304 37.9376 55.5711 37.4585 55.4945C36.9794 55.4181 36.5003 55.7242 36.4205 56.1834V58.4797H33.945V54.8822H40.6527ZM47.7596 87.4901C49.8359 83.3567 48.2387 79.1467 46.1626 75.1665C44.9648 72.8702 43.6073 70.6503 42.6491 68.5836C42.0101 67.2058 41.3714 65.4453 41.6109 63.9145C41.7706 62.7663 42.4893 61.7712 43.4475 61.1589C44.2461 60.6996 45.1244 60.2404 46.0029 59.9341L46.0827 59.8575L46.4821 59.7045C44.0865 64.0675 44.9648 68.2775 48.7178 72.1047C50.8739 74.248 53.9084 75.3961 57.1024 76.3911L56.9428 81.2134H59.8175V80.7541C59.8175 79.6059 59.7376 78.3814 59.7376 77.2332C61.5743 77.7689 63.4109 78.4578 65.0878 79.2233C61.0952 84.5814 54.6271 87.6431 47.7596 87.4901ZM59.6579 68.3539L60.6161 69.2725L60.9354 68.9664L59.8974 67.8947C60.6958 68.2775 61.3348 68.8132 61.8936 69.5021V69.8083L61.6541 71.875L60.5362 70.8035L60.3765 70.7269L60.2966 70.5738C60.2167 69.8083 59.9771 69.0428 59.6579 68.3539ZM60.0571 70.9565L59.5779 71.9516C59.5779 71.0331 59.498 70.1146 59.498 69.196C59.7376 69.7317 59.8175 70.2676 59.9771 70.8799L60.0571 70.9565ZM60.6161 67.7416L61.5743 68.0479L61.734 67.5886L60.5362 67.2058C61.0952 67.2058 61.6541 67.359 62.2131 67.512L62.3727 67.665L63.5705 69.6553L62.5326 69.4257C61.9735 68.7368 61.3348 68.2009 60.6161 67.7416ZM62.5326 67.0528H62.3727C61.734 66.8231 61.0952 66.7465 60.4563 66.7465L61.8139 66.5169L61.734 66.0576L60.137 66.2873L61.734 65.5219H61.8936L64.2095 65.9046L62.5326 67.0528ZM62.2131 62.7663L61.6541 62.996L62.293 62.5367L62.2131 62.7663ZM62.0535 63.3786L61.5743 65.1391V65.2157H61.4944C60.7757 65.5219 60.0571 65.828 59.3384 66.2873L60.9354 64.6034L60.5362 64.2972L59.1787 65.828C59.4183 65.2923 59.6579 64.7564 59.9771 64.2206L60.0571 64.1441H60.137L62.0535 63.3786ZM57.5816 79.4529V78.764L59.3384 79.9888V80.7541L57.5816 79.4529ZM58.6996 80.9837H57.5816L57.5018 80.9073V80.1418L58.6996 80.9837ZM59.0189 69.3491V70.1146L57.901 69.3491V68.5836L59.0189 69.3491ZM57.9809 67.8183V67.1294L58.9392 67.7416V68.5072L57.9809 67.8183ZM59.0988 70.8035V71.5688L57.901 70.6503V69.8849L59.0988 70.8035ZM59.0988 72.3343V73.0998L57.8211 72.1813V71.4924L59.0988 72.3343ZM59.1787 73.8651V74.6306L57.8211 73.6355V72.9466L59.1787 73.8651ZM59.1787 75.3961V76.1615L57.6615 75.0899V74.401L59.1787 75.3961ZM59.2585 76.927V77.6925L57.6615 76.5443V75.8554L59.2585 76.927ZM59.3384 78.4578V79.2233L57.6615 77.9985V77.3096L59.3384 78.4578ZM59.498 64.0675C59.1787 64.5268 58.9392 64.9861 58.7794 65.5219V63.6849H58.3002V65.7516C58.0607 65.0627 57.7414 64.4502 57.342 63.9145V63.7613L58.4601 61.6946L59.5779 63.7613V63.8379L59.498 64.0675ZM57.6615 65.828L56.304 64.5268L55.9845 64.833L57.8211 66.5935C57.1024 66.0576 56.304 65.5984 55.4255 65.2923L55.3458 65.2157L54.8667 63.3786L56.7032 64.1441L56.8629 64.2206L56.9428 64.2972C57.1823 64.7564 57.4219 65.2923 57.6615 65.828ZM54.6271 62.7663L54.5472 62.5367L55.186 62.996L54.6271 62.7663ZM54.8667 65.7516H55.186L56.6233 66.3639L55.2659 66.0576L55.1062 66.5169L56.4637 66.7465C55.8249 66.7465 55.1859 66.8997 54.5472 67.0528H54.3875L52.7106 65.9812L54.8667 65.7516ZM54.5472 67.7416L54.7068 67.5886C55.2659 67.4354 55.8249 67.359 56.3838 67.2824L55.1062 67.665L55.2659 68.1243L56.304 67.8183C55.5853 68.2775 55.0263 68.8132 54.4673 69.4257L54.3875 69.5021V69.5787L53.3494 69.8083L54.5472 67.7416ZM55.0263 69.6553C55.5054 69.0428 56.1442 68.5072 56.7831 68.1243L55.9046 68.9664L56.2241 69.2725L57.342 68.2009C56.8629 68.9664 56.5436 69.8083 56.3838 70.6503V70.7269L56.304 70.8035L55.2659 71.9516L55.0263 69.8849V69.6553ZM56.9428 70.6503C57.0227 70.191 57.1823 69.7317 57.4219 69.2725L57.342 71.7984L56.9428 70.8799V70.6503ZM59.7376 76.6973C59.6579 75.4726 59.6579 74.248 59.5779 73.0232L60.0571 72.0281V73.4059H60.5362V72.1047L61.0153 73.3294L61.4944 73.1762L61.0153 71.875L61.9735 72.8702L62.3727 72.5639L62.2131 72.4109L62.3727 71.0331L62.7721 72.4109L63.2513 72.2577L62.8519 70.9565L63.6505 72.0281L64.0497 71.7984L63.0914 70.4972L64.3691 71.2627L64.6087 70.8799L63.4109 70.191L63.8101 70.2676L63.9699 70.4972L64.2892 70.3442L64.8483 70.4206L64.9282 69.9614H64.7683L65.0878 69.6553L63.89 68.3539L65.4073 69.196L65.6469 68.8132L64.0497 67.8947L65.8864 68.2775L65.9662 67.8183L64.4491 67.512L65.9662 67.4354V66.9761L64.2892 67.0528L65.9662 66.5169L65.8065 66.0576L64.2095 66.5935L65.0079 66.0576L65.6469 65.675L65.3274 65.3687L64.8483 65.675L63.6505 65.5219L65.2475 65.3687L65.1677 64.9095L63.331 65.0627L64.9282 64.3738L64.7683 63.9145L63.1713 64.6034L64.5288 63.4552L64.2095 63.0724L62.8519 64.1441L63.8101 62.6897L63.4109 62.4601L63.331 62.3071L62.8519 62.4601L62.9318 62.2305H62.6922L63.0117 62.0008L62.6922 61.6182L61.0952 62.6897L62.2131 61.2353L61.8139 60.9293L60.5362 62.4601L61.2549 60.623L60.7757 60.47L60.2167 62.0008L60.3765 60.3934H59.8974L59.7376 62.1539L59.3384 60.47L58.8593 60.5464L59.2585 62.3071L58.6197 61.2353L58.8593 60.8527L58.3801 60.623L58.3002 60.6996L57.8211 60.9293L57.9809 61.2353L57.5018 62.2305L57.901 60.47L57.4219 60.3934L57.0227 62.1539L56.8629 60.3934L56.3838 60.47L56.5436 62.0774L55.9046 60.47L55.4255 60.623L56.1442 62.4601L54.8667 60.9293L54.4673 61.2353L55.5853 62.6897L53.9882 61.6182L53.6689 62.0008L54.0681 62.3071L53.8285 62.3835L53.9084 62.5367L53.509 62.2305L53.4293 62.4601L53.0299 62.6897L53.9882 64.1441L52.7106 63.0724L52.3911 63.4552L53.7486 64.6034L52.0717 63.9145L51.8321 64.2972L53.4293 64.9861L51.6725 64.7564L51.5925 65.2157L53.1897 65.3687L52.0717 65.5219L51.5925 65.2923L51.353 65.675L51.8321 65.9812V66.1342H51.9919L52.8703 66.6701L51.2733 66.1342L51.1134 66.5935L52.7903 67.1294L51.0337 67.0528V67.512L52.5508 67.5886L51.0337 67.8947L51.1134 68.3539L52.9502 67.9713L51.353 68.8898L51.5925 69.2725L53.0299 68.3539L51.8321 69.5787L52.1516 69.8849H51.9919L52.0717 70.3442L52.6307 70.2676L52.9502 70.4206L53.1098 70.191L53.509 70.1146L52.3112 70.8035L52.5508 71.1861L53.8285 70.4206L52.9502 71.6454L53.3494 71.875L54.148 70.8035L53.8285 72.1813L54.3076 72.3343L54.7068 70.9565L54.8667 72.3343L54.7068 72.4873L55.1062 72.7936L56.0645 71.7984L55.5054 73.0998L55.9845 73.2528L56.4637 72.0281V73.3294H56.9428V71.9516L57.342 72.7936L57.2623 75.8554C54.2277 74.8603 51.353 73.7887 49.2769 71.722C44.6453 67.0527 45.4439 62.8428 47.3604 59.6279L47.5999 59.1686H48.7178L71.3963 59.7045C71.3963 66.7465 69.32 73.8651 65.3274 79.0703C63.4908 78.2281 61.5743 77.4628 59.5779 76.927M63.6505 68.8898L64.6087 69.8849L64.1296 69.8083L63.6505 68.8898ZM62.3727 63.9145L62.6123 63.0724L63.0117 62.9194L62.3727 63.9145ZM54.4673 63.9145L53.8285 62.9194L54.3076 63.0724L54.4673 63.9145ZM53.2695 68.8898L52.7106 69.8083L52.2315 69.8849L53.2695 68.8898ZM71.5559 58.7094H58.8593C63.0914 56.1834 64.3691 52.7389 66.6848 52.9686C67.9625 53.1218 69.879 53.581 71.0768 53.7341C71.3963 55.3415 71.476 57.0255 71.5559 58.7094ZM70.7574 53.0452C70.1186 52.9686 69.5595 52.8155 68.9208 52.7389C68.282 52.6625 67.4834 52.5093 66.7647 52.4329C66.5252 52.3563 66.2057 52.3563 65.9662 52.4329C64.6886 52.6625 63.5705 53.8871 62.6922 54.7292C61.4944 56.0304 60.0571 57.2552 58.5398 58.1737L57.5816 58.7094L47.7596 58.6329C49.0373 55.9538 52.8703 51.5908 54.8667 51.897C55.8249 52.05 57.1823 52.4329 58.2205 52.6625C58.3002 53.7341 58.4601 54.8822 58.6197 55.9538C58.6996 56.3366 58.6996 57.1019 59.3384 57.1019C60.0571 57.1019 59.9771 56.3366 60.0571 55.8774C60.3765 54.6526 60.7757 53.5044 61.1749 52.3563C63.6505 50.8254 63.7304 46.0796 68.6013 46.0032H69.0804C69.9589 48.2995 70.5977 50.6722 70.9969 53.0452H70.7574ZM54.3875 43.4772L57.2623 42.9413C58.9392 43.0944 60.9354 41.7166 61.8139 41.5635C62.0535 41.5635 62.293 41.7166 62.3727 41.8698L60.6958 42.6351L60.9354 43.0944L62.7721 42.2524C63.0117 42.4055 63.0914 42.6351 63.0914 42.8647L61.0952 43.324L61.1749 43.7833L63.2513 43.324C63.331 43.4772 63.2513 43.7068 63.1713 43.7833C62.2131 44.3191 61.0153 44.3957 60.0571 44.7784C60.4563 46.1562 61.4145 47.8402 61.3348 49.218V49.6773L60.2966 47.534L59.8175 47.7636L61.2549 50.5192C61.1749 51.0551 61.0153 51.5143 60.8557 52.05L59.7376 48.4525L59.2585 48.6055L60.6161 52.8155C60.2167 53.8107 59.8974 54.8056 59.6579 55.8008C59.498 56.6427 59.6579 56.7959 59.498 55.8774C58.9392 53.1218 58.9392 48.2229 57.5816 46.3858C57.0227 46.0796 56.3837 45.7735 55.745 45.5439C55.2659 45.3907 54.7068 45.3143 54.148 45.2377C53.7486 45.3143 53.1098 45.4673 52.7106 45.5439C52.7106 44.855 53.1098 43.324 54.3875 43.4772ZM48.9574 40.645C47.8395 40.3388 47.8395 40.3388 49.0373 40.3388C51.1134 40.2623 53.1098 40.492 55.0263 41.1809C55.9046 41.4869 56.7032 41.8698 57.5018 42.329H57.342L54.9464 42.7883C53.1098 41.5635 51.0337 41.1809 48.9574 40.645ZM78.6628 87.7963L67.6431 77.3862C75.7881 64.3738 73.712 43.324 61.4145 34.2919C57.5018 31.3831 52.7106 29.8523 47.7596 29.9289C38.9758 29.9289 32.5077 34.1387 28.4351 40.2623L15.8981 28.3979L19.1722 24.4941C38.1772 21.5855 57.5018 21.2028 76.4271 24.4941L85.5303 35.3635C82.0966 38.119 79.5413 41.5635 78.9823 46.0032C78.3435 51.3611 80.8189 56.7193 82.8952 61.5416C84.9713 66.3639 87.0474 71.2627 87.0474 76.5443C87.0474 80.8307 83.2145 84.7345 78.6628 87.7963Z" fill="#405965"/>
<path d="M410 15H409V96H410V15Z" fill="white"/>
</g>
<defs>
<filter id="filter0_d_27_258" x="0" y="0" width="522" height="123" filterUnits="userSpaceOnUse" color-interpolation-filters="sRGB">
<feFlood flood-opacity="0" result="BackgroundImageFix"/>
<feColorMatrix in="SourceAlpha" type="matrix" values="0 0 0 0 0 0 0 0 0 0 0 0 0 0 0 0 0 0 127 0" result="hardAlpha"/>
<feOffset dy="4"/>
<feGaussianBlur stdDeviation="2"/>
<feComposite in2="hardAlpha" operator="out"/>
<feColorMatrix type="matrix" values="0 0 0 0 0 0 0 0 0 0 0 0 0 0 0 0 0 0 0.25 0"/>
<feBlend mode="normal" in2="BackgroundImageFix" result="effect1_dropShadow_27_258"/>
<feBlend mode="normal" in="SourceGraphic" in2="effect1_dropShadow_27_258" result="shape"/>
</filter>
<linearGradient id="paint0_linear_27_258" x1="21.0089" y1="3.6895" x2="74.3637" y2="3.6895" gradientUnits="userSpaceOnUse">
<stop stop-color="#D8B56D"/>
<stop offset="0.51" stop-color="#EDD9B1"/>
<stop offset="0.53" stop-color="#ECD8AF"/>
<stop offset="1" stop-color="#D8B56B"/>
</linearGradient>
<linearGradient id="paint1_linear_27_258" x1="23.9626" y1="7.09192" x2="72.0872" y2="7.09192" gradientUnits="userSpaceOnUse">
<stop stop-color="#B79644"/>
<stop offset="0.51" stop-color="#C7A865"/>
<stop offset="1" stop-color="#B89642"/>
</linearGradient>
<linearGradient id="paint2_linear_27_258" x1="22.7032" y1="13.9278" x2="73.3606" y2="13.9278" gradientUnits="userSpaceOnUse">
<stop stop-color="#DBB872"/>
<stop offset="0.51" stop-color="#E0C28B"/>
<stop offset="1" stop-color="#DBB872"/>
</linearGradient>
<radialGradient id="paint3_radial_27_258" cx="0" cy="0" r="1" gradientUnits="userSpaceOnUse" gradientTransform="translate(48.0576 64.9495) scale(44.8792 42.4199)">
<stop stop-color="#01A668"/>
<stop offset="0.39" stop-color="#029D5F"/>
<stop offset="1" stop-color="#038647"/>
</radialGradient>
<radialGradient id="paint4_radial_27_258" cx="0" cy="0" r="1" gradientUnits="userSpaceOnUse" gradientTransform="translate(39.1283 56.6004) scale(32.3973 30.6108)">
<stop stop-color="#E0F0E0"/>
<stop offset="0.14" stop-color="#D7EDE1"/>
<stop offset="0.37" stop-color="#BEE5E3"/>
<stop offset="0.65" stop-color="#96D7E7"/>
<stop offset="0.99" stop-color="#5EC5ED"/>
<stop offset="1" stop-color="#5CC4ED"/>
</radialGradient>
<linearGradient id="paint5_linear_27_258" x1="21.2925" y1="73.264" x2="67.8158" y2="73.264" gradientUnits="userSpaceOnUse">
<stop stop-color="white"/>
<stop offset="0.18" stop-color="#FFFBF6"/>
<stop offset="0.48" stop-color="#FEEFDD"/>
<stop offset="0.86" stop-color="#FCDBB5"/>
<stop offset="1" stop-color="#FBD3A4"/>
</linearGradient>
<linearGradient id="paint6_linear_27_258" x1="22.7047" y1="73.5131" x2="54.1216" y2="73.5131" gradientUnits="userSpaceOnUse">
<stop stop-color="#00AEB4"/>
<stop offset="0.18" stop-color="#09B0B6"/>
<stop offset="0.47" stop-color="#22B5BA"/>
<stop offset="0.84" stop-color="#4ABEC2"/>
<stop offset="1" stop-color="#5EC2C6"/>
</linearGradient>
<linearGradient id="paint7_linear_27_258" x1="59.4819" y1="45.1715" x2="59.4819" y2="59.1118" gradientUnits="userSpaceOnUse">
<stop stop-color="#19A576"/>
<stop offset="0.33" stop-color="#149D6D"/>
<stop offset="0.87" stop-color="#068654"/>
<stop offset="1" stop-color="#027F4D"/>
</linearGradient>
<linearGradient id="paint8_linear_27_258" x1="42.9167" y1="69.0355" x2="71.3823" y2="69.0355" gradientUnits="userSpaceOnUse">
<stop stop-color="#E9B68B"/>
<stop offset="0.3" stop-color="#E4AF82"/>
<stop offset="0.8" stop-color="#D69C69"/>
<stop offset="1" stop-color="#CF935D"/>
</linearGradient>
<linearGradient id="paint9_linear_27_258" x1="65.1597" y1="53.121" x2="65.1597" y2="59.3801" gradientUnits="userSpaceOnUse">
<stop stop-color="#19A576"/>
<stop offset="0.33" stop-color="#149D6D"/>
<stop offset="0.87" stop-color="#068654"/>
<stop offset="1" stop-color="#027F4D"/>
</linearGradient>
<linearGradient id="paint10_linear_27_258" x1="34.5364" y1="53.6651" x2="41.5955" y2="53.6651" gradientUnits="userSpaceOnUse">
<stop stop-color="#DBDAD9"/>
<stop offset="0.35" stop-color="#E2E2E2"/>
<stop offset="0.92" stop-color="#F7F9FB"/>
<stop offset="1" stop-color="#FAFDFF"/>
</linearGradient>
<linearGradient id="paint11_linear_27_258" x1="35.6942" y1="44.7094" x2="39.2836" y2="44.7094" gradientUnits="userSpaceOnUse">
<stop stop-color="#DBDAD9"/>
<stop offset="0.35" stop-color="#E2E2E2"/>
<stop offset="0.92" stop-color="#F7F9FB"/>
<stop offset="1" stop-color="#FAFDFF"/>
</linearGradient>
<clipPath id="clip0_27_258">
<rect width="514" height="115" fill="white" transform="translate(4)"/>
</clipPath>
</defs>
</svg>
